<svg width="87" height="64" viewBox="0 0 87 64" fill="none" xmlns="http://www.w3.org/2000/svg">
<g id="upload">
<g id="Group">
<path id="Vector" d="M43.499 0C49.9713 0 56.4542 2.50929 61.3924 7.54816C65.5833 11.8244 67.9973 17.2312 68.6317 22.8058C78.9379 23.7605 87 32.5897 87 43.355C87 54.7567 77.9414 64 66.7674 64H17.1975C7.66978 64 0 56.1731 0 46.4519C0 36.7299 7.6705 28.9038 17.1975 28.9038H18.3986C17.5073 21.3123 19.9284 13.3747 25.6378 7.54908C30.576 2.51022 37.0272 0.000921147 43.4994 0.000921147L43.499 0ZM43.499 21.6773C42.962 21.6751 42.5852 21.7781 42.1399 22.1936L31.0116 32.5161C30.2199 33.2412 30.0745 34.6552 30.8536 35.4517C31.6051 36.22 32.9451 36.3122 33.7306 35.5806L41.4759 28.386V50.5794C41.4759 51.72 42.3812 52.6438 43.4989 52.6438C44.6167 52.6438 45.522 51.7192 45.522 50.5794V28.386L53.2673 35.5792C54.0527 36.3107 55.4302 36.2546 56.1443 35.4503C56.8584 34.646 56.8175 33.2534 55.9862 32.5146L44.858 22.1921C44.5686 21.9221 44.0394 21.6866 43.4989 21.6758L43.499 21.6773Z" fill="#777777"/>
</g>
</g>
</svg>
