<svg width="17" height="17" viewBox="0 0 17 17" fill="none" xmlns="http://www.w3.org/2000/svg">
<path d="M4.65138 7.83209H12.3494C12.924 7.83209 13.2294 7.15209 12.8474 6.72209L8.99871 2.39209C8.93628 2.32163 8.85961 2.26522 8.77377 2.22658C8.68792 2.18795 8.59485 2.16797 8.50071 2.16797C8.40657 2.16797 8.3135 2.18795 8.22766 2.22658C8.14181 2.26522 8.06514 2.32163 8.00271 2.39209L4.15271 6.72209C3.77071 7.15209 4.07604 7.83209 4.65138 7.83209ZM8.00204 14.6048C8.06447 14.6752 8.14114 14.7316 8.22699 14.7703C8.31284 14.8089 8.4059 14.8289 8.50004 14.8289C8.59418 14.8289 8.68725 14.8089 8.7731 14.7703C8.85895 14.7316 8.93562 14.6752 8.99804 14.6048L12.8467 10.2748C13.2294 9.84543 12.924 9.16543 12.3487 9.16543H4.65138C4.07671 9.16543 3.77138 9.84543 4.15338 10.2754L8.00204 14.6048Z" fill="#9E9E9E"/>
</svg>
