<svg width="84" height="84" viewBox="0 0 84 84" fill="none" xmlns="http://www.w3.org/2000/svg">
<rect x="0.660156" y="0.0898438" width="83" height="83" rx="20" fill="#F563D3"/>
<path d="M21.73 31.1057C21.744 31.1843 21.7554 31.2629 21.76 31.3421C21.8194 32.3593 22.5884 40.4753 32.2564 50.3571C32.2564 50.3571 40.6079 58.868 49.3975 60.6575C49.4356 60.6653 49.4729 60.6738 49.5109 60.6843C50.0431 60.8291 54.5677 61.9727 56.9 59.6337L60.2227 56.3706C60.2527 56.3411 60.2841 56.3123 60.3161 56.2847C60.6476 55.9998 62.9552 53.8678 60.6469 51.6009C58.3106 49.3065 55.3654 46.509 55.0319 46.192C55.0159 46.177 55.0005 46.1619 54.9852 46.1462C54.8045 45.9615 53.0877 44.3004 51.0769 45.818C51.0189 45.8619 50.9642 45.911 50.9122 45.9621L47.6588 49.1657C46.9299 49.8567 45.772 49.8475 45.0537 49.1454L33.9391 38.2719C33.1928 37.5416 33.2121 36.3489 33.9818 35.6421L36.5829 33.2553C36.5829 33.2553 39.4327 30.6642 36.3721 27.8654L31.8289 23.4036C31.8009 23.3761 31.7742 23.348 31.7475 23.3185C31.4541 22.9936 29.2765 20.7693 26.7214 23.2451C26.6434 23.3205 26.5587 23.3886 26.4687 23.4488C25.6016 24.0331 21.0451 27.2976 21.73 31.1057Z" fill="white"/>
<path d="M52.3529 39.0545C53.0566 39.0542 53.636 38.4806 53.5363 37.784C53.4133 36.9239 53.166 36.0839 52.8004 35.2907C52.2564 34.1107 51.4633 33.0625 50.4758 32.2181C49.4882 31.3737 48.3295 30.7531 47.0793 30.3991C46.239 30.1611 45.3707 30.0474 44.5019 30.0594C43.7983 30.0692 43.3217 30.7307 43.4307 31.4259C43.5396 32.1211 44.1949 32.583 44.898 32.6125C45.3998 32.6336 45.8989 32.7133 46.385 32.8509C47.2812 33.1047 48.1118 33.5496 48.8198 34.1549C49.5277 34.7602 50.0962 35.5116 50.4862 36.3575C50.6977 36.8163 50.8539 37.297 50.9527 37.7894C51.0911 38.4793 51.6492 39.0549 52.3529 39.0545Z" fill="#F9A1E5"/>
<path d="M57.6143 39.199C58.4619 39.2654 59.2121 38.6305 59.1804 37.7809C59.1228 36.2356 58.7968 34.7081 58.2132 33.2677C57.4364 31.3503 56.2244 29.6399 54.6729 28.2715C53.1215 26.903 51.2731 25.9141 49.2737 25.3827C47.7717 24.9836 46.2154 24.8509 44.6751 24.9867C43.8282 25.0613 43.2919 25.8849 43.4636 26.7176C43.6352 27.5503 44.4507 28.0738 45.2997 28.0285C46.3684 27.9715 47.4426 28.0818 48.483 28.3583C50.021 28.767 51.4429 29.5277 52.6363 30.5804C53.8298 31.6331 54.7622 32.9489 55.3597 34.4238C55.764 35.4215 56.0075 36.4735 56.0844 37.541C56.1455 38.389 56.7667 39.1327 57.6143 39.199Z" fill="#F9A1E5"/>
</svg>
